<?xml version="1.0" encoding="UTF-8"?><svg id="a" xmlns="http://www.w3.org/2000/svg" viewBox="0 0 77.46 75.94"><defs><style>.b{fill:#123;}</style></defs><path class="b" d="M0,35.48c.49-2.41,.85-4.85,1.49-7.22C8.44,2.57,39.62-8.39,61.3,7.2c18.18,13.07,21.51,37.56,7.47,54.87-12.52,15.43-36.24,18.44-52.56,6.73C7.01,62.19,1.72,53.34,.43,42.11c-.06-.56-.28-1.11-.43-1.66v-4.97Zm43.21-14.25c-4.42,4.7-8.5,9.14-12.7,13.48-3.12,3.22-3.25,3.22-.18,6.34,4.34,4.41,8.78,8.72,13.11,13l3.49-3.22c-3.63-3.82-7.12-7.57-10.73-11.22-1.18-1.19-1.5-2.09-.05-3.21,.52-.4,.99-.88,1.46-1.35,3.2-3.2,6.39-6.4,9.6-9.62l-3.99-4.2Z"/></svg>